<?xml version="1.0" standalone="no"?>
<!DOCTYPE svg PUBLIC "-//W3C//DTD SVG 1.1//EN" "http://www.w3.org/Graphics/SVG/1.1/DTD/svg11.dtd" >
<svg xmlns="http://www.w3.org/2000/svg">
<metadata>
This is a custom SVG webfont generated by Font Squirrel.
Copyright   : freeware    designsalvo nicolosi    2006   contactsnicolosiatgmailcom
Designer    : Salvo Nicolosi
Foundry     : Salvo Nicolosi
</metadata>
<defs>
<font id="webfontbRat92gB" horiz-adv-x="1224" >
<font-face units-per-em="2048" ascent="1638" descent="-410" />
<missing-glyph horiz-adv-x="477" />
<glyph unicode=" "  horiz-adv-x="477" />
<glyph unicode="&#x09;" horiz-adv-x="477" />
<glyph unicode="&#xa0;" horiz-adv-x="477" />
<glyph unicode="A" horiz-adv-x="1406" d="M158 0l547 1094l546 -1094h-202l-93 182h-501l-95 -182h-202zM543 365h321l-159 321z" />
<glyph unicode="B" d="M158 0v1094h592q65 0 122 -25t103 -70q43 -43 67 -102q27 -63 27 -123q0 -131 -96 -227q96 -92 96 -230q0 -59 -27 -122q-25 -57 -67 -101q-45 -45 -103 -69q-58 -25 -122 -25h-592zM338 182h412q27 0 53 11q23 8 43 28q18 18 28.5 45t10.5 51q0 27 -11 54q-8 23 -28 43 q-18 18 -43 30q-20 10 -53 11h-412v-273zM338 637h412q33 0 53 10q25 12 43 31q20 20 28 43q10 27 10.5 53.5t-10.5 52.5q-8 23 -28 43q-23 23 -43 31q-27 10 -53 10h-412v-274z" />
<glyph unicode="C" horiz-adv-x="1249" d="M158 547q0 109 43 211q41 96 118 174q76 76 174.5 119t213.5 43q113 0 211 -43t174 -119l-129 -129q-109 109 -256 108q-74 0 -144 -28q-61 -25 -114 -78q-55 -55 -80 -117q-29 -70 -29 -141.5t29 -140.5q27 -66 78 -117t116 -78q70 -29 144 -29q145 0 256 107l129 -129 q-72 -72 -174 -117q-98 -43 -211 -43q-115 0 -213 43q-102 45 -175 117q-76 76 -118.5 174t-42.5 213z" />
<glyph unicode="D" d="M158 0v1094h364q113 0 211 -43t174 -119q72 -72 117 -174.5t45 -211t-45 -211t-117 -173.5q-78 -78 -174 -119q-102 -43 -211 -43h-364zM338 182h184q72 0 142 29q59 25 114 80q53 53 78 115q29 70 29 141q0 70 -29 139q-27 66 -78 117q-55 55 -116 80q-70 29 -140 28 h-184v-729z" />
<glyph unicode="E" horiz-adv-x="1042" d="M158 0v1094h727v-183h-547v-274h547v-182h-547v-273h547v-182h-727z" />
<glyph unicode="F" horiz-adv-x="1042" d="M158 0v1094h727v-183h-547v-362h547v-184h-547v-365h-180z" />
<glyph unicode="G" horiz-adv-x="1316" d="M158 547q0 225 159 385q162 162 388 162q115 0 213 -43t174 -119l-131 -129q-104 109 -256 108q-150 0 -259 -108q-106 -111 -106 -256q0 -147 106 -258q111 -106 259 -107q84 0 151 33q74 35 123 90v150h-274v182h456v-391q-31 -47 -88 -101q-45 -43 -106 -77 q-55 -33 -125 -52q-59 -16 -137 -16q-227 0 -387 160t-160 387z" />
<glyph unicode="H" d="M158 0v1094h180v-455h547v455h184v-1094h-184v455h-547v-455h-180z" />
<glyph unicode="I" horiz-adv-x="495" d="M158 0v1094h180v-1094h-180z" />
<glyph unicode="J" horiz-adv-x="937" d="M158 106l131 130q53 -53 126.5 -53.5t127.5 53.5q55 55 55 129v729h184v-729q0 -150 -108 -259q-113 -106 -258 -106q-147 0 -258 106z" />
<glyph unicode="K" d="M158 0v1094h180v-471l473 471h258l-547 -547l547 -547h-258l-473 469v-469h-180z" />
<glyph unicode="L" horiz-adv-x="1042" d="M158 0v1094h180v-912h547v-182h-727z" />
<glyph unicode="M" horiz-adv-x="1409" d="M158 0v1094l547 -547l548 547v-1094h-184v653l-364 -364l-367 364v-653h-180z" />
<glyph unicode="N" d="M158 2v1094l727 -656v656h184v-1094v2v-4l-731 655v-653h-180z" />
<glyph unicode="O" horiz-adv-x="1409" d="M158 547q0 225 159 385q158 162 388 162q223 0 385 -162q164 -160 163 -385q0 -229 -163 -387q-160 -160 -385 -160q-227 0 -387 160t-160 387zM340 547q0 -147 106 -258q111 -106 259 -107q145 0 256 107q109 109 108 258q0 147 -108.5 255.5t-255.5 108.5 q-150 0 -259 -108q-106 -111 -106 -256z" />
<glyph unicode="P" d="M158 0v1094h547q150 0 256 -107q109 -109 108 -260q0 -150 -108 -258q-109 -104 -256 -104h-367v-365h-180zM338 547h367q74 0 127 53t53 127q0 76 -54 129q-55 55 -126 55h-367v-364z" />
<glyph unicode="Q" horiz-adv-x="1409" d="M158 547q0 225 159 385q158 162 388 162q223 0 385 -162q164 -160 163 -385q0 -174 -102 -318l102 -100l-131 -129l-102 100q-143 -100 -315 -100q-227 0 -387 160t-160 387zM340 547q0 -147 106 -258q111 -106 259 -107q145 0 256 107q109 109 108 258 q0 147 -108.5 255.5t-255.5 108.5q-150 0 -259 -108q-106 -111 -106 -256z" />
<glyph unicode="R" d="M158 0v1094h547q150 0 256 -107q109 -109 108 -258q0 -113 -65 -207q-63 -90 -160 -129l225 -393h-211l-211 365h-309v-365h-180zM338 549l367 -2q74 0 127 53t53 129q0 74 -54 127q-55 55 -126 55h-367v-362z" />
<glyph unicode="S" d="M158 0v182h590q29 0 55 11q23 8 43 28.5t28 42.5q10 27 11 53q0 55 -41 96.5t-96 41.5h-273q-131 0 -225 94q-92 92 -92 225t92 225q92 94 225 95h594v-183h-594q-27 0 -53 -10q-20 -8 -43 -30.5t-31 -43.5q-10 -27 -10 -53q0 -55 41 -96t96 -41h273q131 0 225 -94 q96 -92 96 -226q0 -129 -96 -225q-92 -92 -225 -92h-590z" />
<glyph unicode="T" horiz-adv-x="1226" d="M158 911v183h911v-183h-362v-911h-185v911h-364z" />
<glyph unicode="U" d="M158 455v639h180v-639q0 -113 80 -193t192.5 -80t192.5 80q82 80 82 193v639h184v-639q0 -186 -135 -322q-137 -133 -324 -133q-182 0 -319 133q-133 138 -133 322z" />
<glyph unicode="V" horiz-adv-x="1406" d="M158 1094h202l345 -686l344 686h202l-546 -1094z" />
<glyph unicode="W" horiz-adv-x="2095" d="M158 1094h202l347 -686l342 686l342 -686l344 686h202l-546 -1094l-342 686l-342 -686z" />
<glyph unicode="X" horiz-adv-x="1400" d="M158 0l428 547l-428 547h233l309 -400l314 400h231l-428 -547l428 -547h-231l-314 399l-309 -399h-233z" />
<glyph unicode="Y" horiz-adv-x="1400" d="M158 1094h233l309 -400l314 400h231l-450 -574v-520h-181v510z" />
<glyph unicode="Z" horiz-adv-x="1409" d="M158 0l712 911h-712v183h1087l-713 -912h721v-182h-1095z" />
<glyph unicode="a" horiz-adv-x="1406" d="M158 0l547 1094l546 -1094h-202l-93 182h-501l-95 -182h-202zM543 365h321l-159 321z" />
<glyph unicode="b" d="M158 0v1094h592q133 0 225 -95q94 -94 94 -225t-96 -227q96 -92 96 -230q0 -127 -94 -225q-92 -92 -225 -92h-592zM338 182h412q27 0 53 11q23 8 43 28q18 18 28.5 45t10.5 51q0 55 -41 96.5t-94 41.5h-412v-273zM338 637h412q33 0 53 10q25 12 43 31q20 20 28 43 q10 27 10.5 53.5t-10.5 52.5q-8 23 -28 43q-23 23 -43 31q-27 10 -53 10h-412v-274z" />
<glyph unicode="c" horiz-adv-x="1249" d="M158 547q0 225 159 385q162 162 390 162q113 0 211 -43t174 -119l-129 -129q-109 109 -256 108q-152 0 -261 -108q-106 -106 -106 -256q0 -152 106 -258q111 -106 261 -107q145 0 256 107l129 -129q-72 -72 -174 -117q-98 -43 -211 -43q-229 0 -389 160t-160 387z" />
<glyph unicode="d" d="M158 0v1094h364q223 0 385 -162t162 -385q0 -225 -162 -387q-160 -160 -385 -160h-364zM338 182h184q145 0 256 107q106 106 107 258q0 150 -107 256q-109 109 -256 108h-184v-729z" />
<glyph unicode="e" horiz-adv-x="1042" d="M158 0v1094h727v-183h-547v-274h547v-182h-547v-273h547v-182h-727z" />
<glyph unicode="f" horiz-adv-x="1042" d="M158 0v1094h727v-183h-547v-362h547v-184h-547v-365h-180z" />
<glyph unicode="g" horiz-adv-x="1316" d="M158 547q0 225 159 385q162 162 388 162q115 0 213 -43t174 -119l-131 -129q-104 109 -256 108q-150 0 -259 -108q-106 -111 -106 -256q0 -147 106 -258q111 -106 259 -107q84 0 151 33q74 35 123 90v150h-274v182h456v-391q-31 -47 -88 -101q-45 -43 -106 -77 q-55 -33 -125 -52q-59 -16 -137 -16q-227 0 -387 160t-160 387z" />
<glyph unicode="h" d="M158 0v1094h180v-455h547v455h184v-1094h-184v455h-547v-455h-180z" />
<glyph unicode="i" horiz-adv-x="495" d="M158 0v1094h180v-1094h-180z" />
<glyph unicode="j" horiz-adv-x="937" d="M158 106l131 130q53 -53 126.5 -53.5t127.5 53.5q55 55 55 129v729h184v-729q0 -150 -108 -259q-113 -106 -258 -106q-147 0 -258 106z" />
<glyph unicode="k" d="M158 0v1094h180v-471l473 471h258l-547 -547l547 -547h-258l-473 469v-469h-180z" />
<glyph unicode="l" horiz-adv-x="1042" d="M158 0v1094h180v-912h547v-182h-727z" />
<glyph unicode="m" horiz-adv-x="1409" d="M158 0v1094l547 -547l548 547v-1094h-184v653l-364 -364l-367 364v-653h-180z" />
<glyph unicode="n" d="M158 2v1094l727 -656v656h184v-1094v2v-4l-731 655v-653h-180z" />
<glyph unicode="o" horiz-adv-x="1409" d="M158 547q0 225 159 385q158 162 388 162q223 0 385 -162q164 -160 163 -385q0 -229 -163 -387q-160 -160 -385 -160q-227 0 -387 160t-160 387zM340 547q0 -147 106 -258q111 -106 259 -107q145 0 256 107q109 109 108 258q0 147 -108.5 255.5t-255.5 108.5 q-150 0 -259 -108q-106 -111 -106 -256z" />
<glyph unicode="p" d="M158 0v1094h547q150 0 256 -107q109 -109 108 -260q0 -150 -108 -258q-109 -104 -256 -104h-367v-365h-180zM338 547h367q74 0 127 53t53 127q0 76 -54 129q-55 55 -126 55h-367v-364z" />
<glyph unicode="q" horiz-adv-x="1409" d="M158 547q0 225 159 385q158 162 388 162q223 0 385 -162q164 -160 163 -385q0 -174 -102 -318l102 -100l-131 -129l-102 100q-143 -100 -315 -100q-227 0 -387 160t-160 387zM340 547q0 -147 106 -258q111 -106 259 -107q145 0 256 107q109 109 108 258 q0 147 -108.5 255.5t-255.5 108.5q-150 0 -259 -108q-106 -111 -106 -256z" />
<glyph unicode="r" d="M158 0v1094h547q150 0 256 -107q109 -109 108 -258q0 -113 -65 -207q-63 -90 -160 -129l225 -393h-211l-211 365h-309v-365h-180zM338 549l367 -2q74 0 127 53t53 129q0 74 -54 127q-55 55 -126 55h-367v-362z" />
<glyph unicode="s" d="M158 0v182h590q29 0 55 11q23 8 43 28.5t28 42.5q10 27 11 53q0 55 -41 96.5t-96 41.5h-273q-131 0 -225 94q-92 92 -92 225t92 225q92 94 225 95h594v-183h-594q-27 0 -53 -10q-20 -8 -43 -30.5t-31 -43.5q-10 -27 -10 -53q0 -55 41 -96t96 -41h273q131 0 225 -94 q96 -92 96 -226q0 -129 -96 -225q-92 -92 -225 -92h-590z" />
<glyph unicode="t" horiz-adv-x="1226" d="M158 911v183h911v-183h-362v-911h-185v911h-364z" />
<glyph unicode="u" d="M158 455v639h180v-639q0 -113 80 -193t192.5 -80t192.5 80q82 80 82 193v639h184v-639q0 -186 -135 -322q-137 -133 -324 -133q-182 0 -319 133q-133 138 -133 322z" />
<glyph unicode="v" horiz-adv-x="1406" d="M158 1094h202l345 -686l344 686h202l-546 -1094z" />
<glyph unicode="w" horiz-adv-x="2095" d="M158 1094h202l347 -686l342 686l342 -686l344 686h202l-546 -1094l-342 686l-342 -686z" />
<glyph unicode="x" horiz-adv-x="1400" d="M158 0l428 547l-428 547h233l309 -400l314 400h231l-428 -547l428 -547h-231l-314 399l-309 -399h-233z" />
<glyph unicode="y" horiz-adv-x="1400" d="M158 1094h233l309 -400l314 400h231l-450 -574v-520h-181v510z" />
<glyph unicode="z" horiz-adv-x="1409" d="M158 0l712 911h-712v183h1087l-713 -912h721v-182h-1095z" />
<glyph unicode="&#xaa;" horiz-adv-x="1406" d="M158 0l547 1094l546 -1094h-202l-93 182h-501l-95 -182h-202zM543 365h321l-159 321z" />
<glyph unicode="&#xad;" horiz-adv-x="786" />
<glyph unicode="&#xba;" horiz-adv-x="1409" d="M158 547q0 225 159 385q158 162 388 162q223 0 385 -162q164 -160 163 -385q0 -229 -163 -387q-160 -160 -385 -160q-227 0 -387 160t-160 387zM340 547q0 -147 106 -258q111 -106 259 -107q145 0 256 107q109 109 108 258q0 147 -108.5 255.5t-255.5 108.5 q-150 0 -259 -108q-106 -111 -106 -256z" />
<glyph unicode="&#x152;" horiz-adv-x="2451" d="M1567 0v1094h727v-183h-547v-274h547v-182h-547v-273h547v-182h-727zM158 547q0 225 159 385q158 162 388 162q223 0 385 -162q164 -160 163 -385q0 -229 -163 -387q-160 -160 -385 -160q-227 0 -387 160t-160 387zM340 547q0 -147 106 -258q111 -106 259 -107 q145 0 256 107q109 109 108 258q0 147 -108.5 255.5t-255.5 108.5q-150 0 -259 -108q-106 -111 -106 -256z" />
<glyph unicode="&#x153;" horiz-adv-x="2451" d="M1567 0v1094h727v-183h-547v-274h547v-182h-547v-273h547v-182h-727zM158 547q0 225 159 385q158 162 388 162q223 0 385 -162q164 -160 163 -385q0 -229 -163 -387q-160 -160 -385 -160q-227 0 -387 160t-160 387zM340 547q0 -147 106 -258q111 -106 259 -107 q145 0 256 107q109 109 108 258q0 147 -108.5 255.5t-255.5 108.5q-150 0 -259 -108q-106 -111 -106 -256z" />
<glyph unicode="&#x2000;" horiz-adv-x="544" />
<glyph unicode="&#x2001;" horiz-adv-x="1093" />
<glyph unicode="&#x2002;" horiz-adv-x="544" />
<glyph unicode="&#x2003;" horiz-adv-x="1093" />
<glyph unicode="&#x2004;" horiz-adv-x="362" />
<glyph unicode="&#x2005;" horiz-adv-x="272" />
<glyph unicode="&#x2006;" horiz-adv-x="180" />
<glyph unicode="&#x2007;" horiz-adv-x="180" />
<glyph unicode="&#x2008;" horiz-adv-x="135" />
<glyph unicode="&#x2009;" horiz-adv-x="217" />
<glyph unicode="&#x200a;" horiz-adv-x="59" />
<glyph unicode="&#x2013;" horiz-adv-x="1024" d="M205 512v205h614v-205h-614z" />
<glyph unicode="&#x2014;" horiz-adv-x="2048" d="M205 512v205h1638v-205h-1638z" />
<glyph unicode="&#x202f;" horiz-adv-x="217" />
<glyph unicode="&#x205f;" horiz-adv-x="272" />
<glyph unicode="&#x2122;" horiz-adv-x="2635" d="M1385 0v1094l547 -547l548 547v-1094h-184v653l-364 -364l-367 364v-653h-180zM158 911v183h911v-183h-362v-911h-185v911h-364z" />
<glyph unicode="&#xfb01;" horiz-adv-x="1538" d="M1200 0v1094h180v-1094h-180zM158 0v1094h727v-183h-547v-362h547v-184h-547v-365h-180z" />
<glyph unicode="&#xfb02;" horiz-adv-x="2084" d="M1200 0v1094h180v-912h547v-182h-727zM158 0v1094h727v-183h-547v-362h547v-184h-547v-365h-180z" />
<glyph unicode="&#xfb03;" horiz-adv-x="2580" d="M2243 0v1094h180v-1094h-180zM1200 0v1094h727v-183h-547v-362h547v-184h-547v-365h-180zM158 0v1094h727v-183h-547v-362h547v-184h-547v-365h-180z" />
<glyph unicode="&#xfb04;" horiz-adv-x="3127" d="M2243 0v1094h180v-912h547v-182h-727zM1200 0v1094h727v-183h-547v-362h547v-184h-547v-365h-180zM158 0v1094h727v-183h-547v-362h547v-184h-547v-365h-180z" />
</font>
</defs>
</svg>
