<?xml version="1.0" encoding="UTF-8" standalone="no"?>
<svg width="334px" height="1136px" viewBox="0 0 334 1136" version="1.1" xmlns="http://www.w3.org/2000/svg" xmlns:xlink="http://www.w3.org/1999/xlink" xmlns:sketch="http://www.bohemiancoding.com/sketch/ns">
    <!-- Generator: Sketch 3.4.4 (17249) - http://www.bohemiancoding.com/sketch -->
    <title>Group</title>
    <desc>Created with Sketch.</desc>
    <defs></defs>
    <g id="Page-1" stroke="none" stroke-width="1" fill="none" fill-rule="evenodd" sketch:type="MSPage">
        <g id="Group" sketch:type="MSLayerGroup">
            <rect id="github_bg" fill="#CC1010" sketch:type="MSShapeGroup" x="94" y="1085" width="141" height="51" rx="8"></rect>
            <rect id="twitter_bg" fill="#CC1010" sketch:type="MSShapeGroup" x="174" y="1001" width="141" height="51" rx="8"></rect>
            <rect id="googleauth_bg" fill="#CC1010" sketch:type="MSShapeGroup" x="18" y="1001" width="141" height="51" rx="8"></rect>
            <rect id="facebook_bg" fill="#CC1010" sketch:type="MSShapeGroup" x="18" y="923" width="141" height="51" rx="8"></rect>
            <rect id="instagram_bg" fill="#CC1010" sketch:type="MSShapeGroup" x="173" y="923" width="141" height="51" rx="8"></rect>
            <rect id="omniauth_bg" fill="#CC1010" sketch:type="MSShapeGroup" x="173" y="782" width="141" height="51" rx="8"></rect>
            <rect id="roles_bg-copy" fill="#CC1010" sketch:type="MSShapeGroup" x="173" y="630" width="141" height="51" rx="8"></rect>
            <rect id="admin_bg" fill="#CC1010" sketch:type="MSShapeGroup" x="173" y="695" width="141" height="51" rx="8"></rect>
            <rect id="invitable_bg" fill="#CC1010" sketch:type="MSShapeGroup" x="17" y="782" width="143" height="51" rx="8"></rect>
            <rect id="confirmable_bg" fill="#CC1010" sketch:type="MSShapeGroup" x="17" y="630" width="143" height="51" rx="8"></rect>
            <rect id="api_bg" fill="#CC1010" sketch:type="MSShapeGroup" x="16" y="536" width="143" height="51" rx="8"></rect>
            <rect id="angular_install_bg" fill="#CC1010" sketch:type="MSShapeGroup" x="173" y="536" width="143" height="51" rx="8"></rect>
            <rect id="splash_bg" fill="#CC1010" sketch:type="MSShapeGroup" x="173" y="385" width="143" height="51" rx="8"></rect>
            <rect id="simple_cms_bg" fill="#CC1010" sketch:type="MSShapeGroup" x="173" y="457" width="143" height="51" rx="8"></rect>
            <rect id="devise_bg" fill="#CC1010" sketch:type="MSShapeGroup" x="16" y="385" width="143" height="51" rx="8"></rect>
            <rect id="bootstrap_bg" fill="#CC1010" sketch:type="MSShapeGroup" x="16" y="255" width="143" height="51" rx="8"></rect>
            <rect id="angular_view_bg" fill="#CC1010" sketch:type="MSShapeGroup" x="173" y="255" width="143" height="51" rx="8"></rect>
            <rect id="html_email_bg" fill="#CC1010" sketch:type="MSShapeGroup" x="173" y="85" width="143" height="51" rx="8"></rect>
            <rect id="jazz_hands_bg" fill="#CC1010" sketch:type="MSShapeGroup" x="16" y="85" width="143" height="51" rx="8"></rect>
            <rect id="ckeditor_bg" fill="#CC1010" sketch:type="MSShapeGroup" x="15" y="170" width="143" height="51" rx="8"></rect>
            <rect id="react_bg" fill="#CC1010" sketch:type="MSShapeGroup" x="170" y="170" width="143" height="51" rx="8"></rect>
            <rect id="base_bg" fill="#CC1010" sketch:type="MSShapeGroup" x="89" y="0" width="143" height="51" rx="8"></rect>
            <path d="M91,7.99683765 L91,7.99683765 L91,44.0031624 C91,46.2139995 92.787141,48 94.9977035,48 L228.002296,48 C230.214887,48 232,46.2138452 232,44.0031624 L232,7.99683765 C232,5.78600047 230.212859,4 228.002296,4 L94.9977035,4 C92.7851125,4 91,5.78615482 91,7.99683765 L91,7.99683765 Z M87,7.99683765 C87,3.58030617 90.5726844,0 94.9977035,0 L228.002296,0 C232.419306,0 236,3.57417059 236,7.99683765 L236,44.0031624 C236,48.4196938 232.427316,52 228.002296,52 L94.9977035,52 C90.5806938,52 87,48.4258294 87,44.0031624 L87,7.99683765 L87,7.99683765 Z" id="base_rect" fill="#979797" sketch:type="MSShapeGroup"></path>
            <path d="M18,92.9968376 L18,92.9968376 L18,129.003162 C18,131.214 19.787141,133 21.9977035,133 L155.002296,133 C157.214887,133 159,131.213845 159,129.003162 L159,92.9968376 C159,90.7860005 157.212859,89 155.002296,89 L21.9977035,89 C19.7851125,89 18,90.7861548 18,92.9968376 L18,92.9968376 Z M14,92.9968376 C14,88.5803062 17.5726844,85 21.9977035,85 L155.002296,85 C159.419306,85 163,88.5741706 163,92.9968376 L163,129.003162 C163,133.419694 159.427316,137 155.002296,137 L21.9977035,137 C17.5806938,137 14,133.425829 14,129.003162 L14,92.9968376 L14,92.9968376 Z" id="jazz_hands_rect" fill="#979797" sketch:type="MSShapeGroup"></path>
            <path d="M17,177.996838 L17,177.996838 L17,214.003162 C17,216.214 18.787141,218 20.9977035,218 L154.002296,218 C156.214887,218 158,216.213845 158,214.003162 L158,177.996838 C158,175.786 156.212859,174 154.002296,174 L20.9977035,174 C18.7851125,174 17,175.786155 17,177.996838 L17,177.996838 Z M13,177.996838 C13,173.580306 16.5726844,170 20.9977035,170 L154.002296,170 C158.419306,170 162,173.574171 162,177.996838 L162,214.003162 C162,218.419694 158.427316,222 154.002296,222 L20.9977035,222 C16.5806938,222 13,218.425829 13,214.003162 L13,177.996838 L13,177.996838 Z" id="ckeditor_rect" fill="#979797" sketch:type="MSShapeGroup"></path>
            <path d="M172,177.996838 L172,177.996838 L172,214.003162 C172,216.214 173.787141,218 175.997704,218 L309.002296,218 C311.214887,218 313,216.213845 313,214.003162 L313,177.996838 C313,175.786 311.212859,174 309.002296,174 L175.997704,174 C173.785113,174 172,175.786155 172,177.996838 L172,177.996838 Z M168,177.996838 C168,173.580306 171.572684,170 175.997704,170 L309.002296,170 C313.419306,170 317,173.574171 317,177.996838 L317,214.003162 C317,218.419694 313.427316,222 309.002296,222 L175.997704,222 C171.580694,222 168,218.425829 168,214.003162 L168,177.996838 L168,177.996838 Z" id="react_rect" fill="#979797" sketch:type="MSShapeGroup"></path>
            <path d="M18,543.996838 L18,543.996838 L18,580.003162 C18,582.214 19.787141,584 21.9977035,584 L155.002296,584 C157.214887,584 159,582.213845 159,580.003162 L159,543.996838 C159,541.786 157.212859,540 155.002296,540 L21.9977035,540 C19.7851125,540 18,541.786155 18,543.996838 L18,543.996838 Z M14,543.996838 C14,539.580306 17.5726844,536 21.9977035,536 L155.002296,536 C159.419306,536 163,539.574171 163,543.996838 L163,580.003162 C163,584.419694 159.427316,588 155.002296,588 L21.9977035,588 C17.5806938,588 14,584.425829 14,580.003162 L14,543.996838 L14,543.996838 Z" id="api_rect" fill="#979797" sketch:type="MSShapeGroup"></path>
            <path d="M18,929.996838 L18,929.996838 L18,966.003162 C18,968.214 19.787141,970 21.9977035,970 L155.002296,970 C157.214887,970 159,968.213845 159,966.003162 L159,929.996838 C159,927.786 157.212859,926 155.002296,926 L21.9977035,926 C19.7851125,926 18,927.786155 18,929.996838 L18,929.996838 Z M14,929.996838 C14,925.580306 17.5726844,922 21.9977035,922 L155.002296,922 C159.419306,922 163,925.574171 163,929.996838 L163,966.003162 C163,970.419694 159.427316,974 155.002296,974 L21.9977035,974 C17.5806938,974 14,970.425829 14,966.003162 L14,929.996838 L14,929.996838 Z" id="facebook_rect" fill="#979797" sketch:type="MSShapeGroup"></path>
            <path d="M18,789.996838 L18,789.996838 L18,826.003162 C18,828.214 19.787141,830 21.9977035,830 L155.002296,830 C157.214887,830 159,828.213845 159,826.003162 L159,789.996838 C159,787.786 157.212859,786 155.002296,786 L21.9977035,786 C19.7851125,786 18,787.786155 18,789.996838 L18,789.996838 Z M14,789.996838 C14,785.580306 17.5726844,782 21.9977035,782 L155.002296,782 C159.419306,782 163,785.574171 163,789.996838 L163,826.003162 C163,830.419694 159.427316,834 155.002296,834 L21.9977035,834 C17.5806938,834 14,830.425829 14,826.003162 L14,789.996838 L14,789.996838 Z" id="invitable_rect" fill="#979797" sketch:type="MSShapeGroup"></path>
            <path d="M18,637.996838 L18,637.996838 L18,674.003162 C18,676.214 19.787141,678 21.9977035,678 L155.002296,678 C157.214887,678 159,676.213845 159,674.003162 L159,637.996838 C159,635.786 157.212859,634 155.002296,634 L21.9977035,634 C19.7851125,634 18,635.786155 18,637.996838 L18,637.996838 Z M14,637.996838 C14,633.580306 17.5726844,630 21.9977035,630 L155.002296,630 C159.419306,630 163,633.574171 163,637.996838 L163,674.003162 C163,678.419694 159.427316,682 155.002296,682 L21.9977035,682 C17.5806938,682 14,678.425829 14,674.003162 L14,637.996838 L14,637.996838 Z" id="confirmable_rect" fill="#979797" sketch:type="MSShapeGroup"></path>
            <path d="M173,91.9968376 L173,91.9968376 L173,128.003162 C173,130.214 174.787141,132 176.997704,132 L310.002296,132 C312.214887,132 314,130.213845 314,128.003162 L314,91.9968376 C314,89.7860005 312.212859,88 310.002296,88 L176.997704,88 C174.785113,88 173,89.7861548 173,91.9968376 L173,91.9968376 Z M169,91.9968376 C169,87.5803062 172.572684,84 176.997704,84 L310.002296,84 C314.419306,84 318,87.5741706 318,91.9968376 L318,128.003162 C318,132.419694 314.427316,136 310.002296,136 L176.997704,136 C172.580694,136 169,132.425829 169,128.003162 L169,91.9968376 L169,91.9968376 Z" id="html_email_rect" fill="#979797" sketch:type="MSShapeGroup"></path>
            <path d="M18,392.996838 L18,392.996838 L18,429.003162 C18,431.214 19.787141,433 21.9977035,433 L155.002296,433 C157.214887,433 159,431.213845 159,429.003162 L159,392.996838 C159,390.786 157.212859,389 155.002296,389 L21.9977035,389 C19.7851125,389 18,390.786155 18,392.996838 L18,392.996838 Z M14,392.996838 C14,388.580306 17.5726844,385 21.9977035,385 L155.002296,385 C159.419306,385 163,388.574171 163,392.996838 L163,429.003162 C163,433.419694 159.427316,437 155.002296,437 L21.9977035,437 C17.5806938,437 14,433.425829 14,429.003162 L14,392.996838 L14,392.996838 Z" id="devise_rect" fill="#979797" sketch:type="MSShapeGroup"></path>
            <path d="M18,1008.99684 L18,1008.99684 L18,1045.00316 C18,1047.214 19.787141,1049 21.9977035,1049 L155.002296,1049 C157.214887,1049 159,1047.21385 159,1045.00316 L159,1008.99684 C159,1006.786 157.212859,1005 155.002296,1005 L21.9977035,1005 C19.7851125,1005 18,1006.78615 18,1008.99684 L18,1008.99684 Z M14,1008.99684 C14,1004.58031 17.5726844,1001 21.9977035,1001 L155.002296,1001 C159.419306,1001 163,1004.57417 163,1008.99684 L163,1045.00316 C163,1049.41969 159.427316,1053 155.002296,1053 L21.9977035,1053 C17.5806938,1053 14,1049.42583 14,1045.00316 L14,1008.99684 L14,1008.99684 Z" id="googleauth_rect" fill="#979797" sketch:type="MSShapeGroup"></path>
            <path d="M173,789.996838 L173,789.996838 L173,826.003162 C173,828.214 174.787141,830 176.997704,830 L310.002296,830 C312.214887,830 314,828.213845 314,826.003162 L314,789.996838 C314,787.786 312.212859,786 310.002296,786 L176.997704,786 C174.785113,786 173,787.786155 173,789.996838 L173,789.996838 Z M169,789.996838 C169,785.580306 172.572684,782 176.997704,782 L310.002296,782 C314.419306,782 318,785.574171 318,789.996838 L318,826.003162 C318,830.419694 314.427316,834 310.002296,834 L176.997704,834 C172.580694,834 169,830.425829 169,826.003162 L169,789.996838 L169,789.996838 Z" id="omniauth_rect" fill="#979797" sketch:type="MSShapeGroup"></path>
            <path d="M173,637.996838 L173,637.996838 L173,674.003162 C173,676.214 174.787141,678 176.997704,678 L310.002296,678 C312.214887,678 314,676.213845 314,674.003162 L314,637.996838 C314,635.786 312.212859,634 310.002296,634 L176.997704,634 C174.785113,634 173,635.786155 173,637.996838 L173,637.996838 Z M169,637.996838 C169,633.580306 172.572684,630 176.997704,630 L310.002296,630 C314.419306,630 318,633.574171 318,637.996838 L318,674.003162 C318,678.419694 314.427316,682 310.002296,682 L176.997704,682 C172.580694,682 169,678.425829 169,674.003162 L169,637.996838 L169,637.996838 Z" id="roles_rect" fill="#979797" sketch:type="MSShapeGroup"></path>
            <path d="M173,702.996838 L173,702.996838 L173,739.003162 C173,741.214 174.787141,743 176.997704,743 L310.002296,743 C312.214887,743 314,741.213845 314,739.003162 L314,702.996838 C314,700.786 312.212859,699 310.002296,699 L176.997704,699 C174.785113,699 173,700.786155 173,702.996838 L173,702.996838 Z M169,702.996838 C169,698.580306 172.572684,695 176.997704,695 L310.002296,695 C314.419306,695 318,698.574171 318,702.996838 L318,739.003162 C318,743.419694 314.427316,747 310.002296,747 L176.997704,747 C172.580694,747 169,743.425829 169,739.003162 L169,702.996838 L169,702.996838 Z" id="admin_rect" fill="#979797" sketch:type="MSShapeGroup"></path>
            <path d="M18,261.996838 L18,261.996838 L18,298.003162 C18,300.214 19.787141,302 21.9977035,302 L155.002296,302 C157.214887,302 159,300.213845 159,298.003162 L159,261.996838 C159,259.786 157.212859,258 155.002296,258 L21.9977035,258 C19.7851125,258 18,259.786155 18,261.996838 L18,261.996838 Z M14,261.996838 C14,257.580306 17.5726844,254 21.9977035,254 L155.002296,254 C159.419306,254 163,257.574171 163,261.996838 L163,298.003162 C163,302.419694 159.427316,306 155.002296,306 L21.9977035,306 C17.5806938,306 14,302.425829 14,298.003162 L14,261.996838 L14,261.996838 Z" id="bootstrap_rect" fill="#979797" sketch:type="MSShapeGroup"></path>
            <path d="M173,392.996838 L173,392.996838 L173,429.003162 C173,431.214 174.787141,433 176.997704,433 L310.002296,433 C312.214887,433 314,431.213845 314,429.003162 L314,392.996838 C314,390.786 312.212859,389 310.002296,389 L176.997704,389 C174.785113,389 173,390.786155 173,392.996838 L173,392.996838 Z M169,392.996838 C169,388.580306 172.572684,385 176.997704,385 L310.002296,385 C314.419306,385 318,388.574171 318,392.996838 L318,429.003162 C318,433.419694 314.427316,437 310.002296,437 L176.997704,437 C172.580694,437 169,433.425829 169,429.003162 L169,392.996838 L169,392.996838 Z" id="splash_rect" fill="#979797" sketch:type="MSShapeGroup"></path>
            <path d="M173,464.996838 L173,464.996838 L173,501.003162 C173,503.214 174.787141,505 176.997704,505 L310.002296,505 C312.214887,505 314,503.213845 314,501.003162 L314,464.996838 C314,462.786 312.212859,461 310.002296,461 L176.997704,461 C174.785113,461 173,462.786155 173,464.996838 L173,464.996838 Z M169,464.996838 C169,460.580306 172.572684,457 176.997704,457 L310.002296,457 C314.419306,457 318,460.574171 318,464.996838 L318,501.003162 C318,505.419694 314.427316,509 310.002296,509 L176.997704,509 C172.580694,509 169,505.425829 169,501.003162 L169,464.996838 L169,464.996838 Z" id="simple_csm_rect" fill="#979797" sketch:type="MSShapeGroup"></path>
            <path d="M173,929.996838 L173,929.996838 L173,966.003162 C173,968.214 174.787141,970 176.997704,970 L310.002296,970 C312.214887,970 314,968.213845 314,966.003162 L314,929.996838 C314,927.786 312.212859,926 310.002296,926 L176.997704,926 C174.785113,926 173,927.786155 173,929.996838 L173,929.996838 Z M169,929.996838 C169,925.580306 172.572684,922 176.997704,922 L310.002296,922 C314.419306,922 318,925.574171 318,929.996838 L318,966.003162 C318,970.419694 314.427316,974 310.002296,974 L176.997704,974 C172.580694,974 169,970.425829 169,966.003162 L169,929.996838 L169,929.996838 Z" id="instagram_rect" fill="#979797" sketch:type="MSShapeGroup"></path>
            <path d="M173,261.996838 L173,261.996838 L173,298.003162 C173,300.214 174.787141,302 176.997704,302 L310.002296,302 C312.214887,302 314,300.213845 314,298.003162 L314,261.996838 C314,259.786 312.212859,258 310.002296,258 L176.997704,258 C174.785113,258 173,259.786155 173,261.996838 L173,261.996838 Z M169,261.996838 C169,257.580306 172.572684,254 176.997704,254 L310.002296,254 C314.419306,254 318,257.574171 318,261.996838 L318,298.003162 C318,302.419694 314.427316,306 310.002296,306 L176.997704,306 C172.580694,306 169,302.425829 169,298.003162 L169,261.996838 L169,261.996838 Z" id="angular_view_rect" fill="#979797" sketch:type="MSShapeGroup"></path>
            <path d="M173,543.996838 L173,543.996838 L173,580.003162 C173,582.214 174.787141,584 176.997704,584 L310.002296,584 C312.214887,584 314,582.213845 314,580.003162 L314,543.996838 C314,541.786 312.212859,540 310.002296,540 L176.997704,540 C174.785113,540 173,541.786155 173,543.996838 L173,543.996838 Z M169,543.996838 C169,539.580306 172.572684,536 176.997704,536 L310.002296,536 C314.419306,536 318,539.574171 318,543.996838 L318,580.003162 C318,584.419694 314.427316,588 310.002296,588 L176.997704,588 C172.580694,588 169,584.425829 169,580.003162 L169,543.996838 L169,543.996838 Z" id="angular_install_rect" fill="#979797" sketch:type="MSShapeGroup"></path>
            <path d="M174,1008.99684 L174,1008.99684 L174,1045.00316 C174,1047.214 175.787141,1049 177.997704,1049 L311.002296,1049 C313.214887,1049 315,1047.21385 315,1045.00316 L315,1008.99684 C315,1006.786 313.212859,1005 311.002296,1005 L177.997704,1005 C175.785113,1005 174,1006.78615 174,1008.99684 L174,1008.99684 Z M170,1008.99684 C170,1004.58031 173.572684,1001 177.997704,1001 L311.002296,1001 C315.419306,1001 319,1004.57417 319,1008.99684 L319,1045.00316 C319,1049.41969 315.427316,1053 311.002296,1053 L177.997704,1053 C173.580694,1053 170,1049.42583 170,1045.00316 L170,1008.99684 L170,1008.99684 Z" id="twitter_rect" fill="#979797" sketch:type="MSShapeGroup"></path>
            <path d="M94,1091.99684 L94,1091.99684 L94,1128.00316 C94,1130.214 95.787141,1132 97.9977035,1132 L231.002296,1132 C233.214887,1132 235,1130.21385 235,1128.00316 L235,1091.99684 C235,1089.786 233.212859,1088 231.002296,1088 L97.9977035,1088 C95.7851125,1088 94,1089.78615 94,1091.99684 L94,1091.99684 Z M90,1091.99684 C90,1087.58031 93.5726844,1084 97.9977035,1084 L231.002296,1084 C235.419306,1084 239,1087.57417 239,1091.99684 L239,1128.00316 C239,1132.41969 235.427316,1136 231.002296,1136 L97.9977035,1136 C93.5806938,1136 90,1132.42583 90,1128.00316 L90,1091.99684 L90,1091.99684 Z" id="github_rect" fill="#979797" sketch:type="MSShapeGroup"></path>
            <text id="base" sketch:type="MSTextLayer" font-family="Roboto" font-size="18" font-weight="bold" fill="#D1D1D1">
                <tspan x="142" y="34">base</tspan>
            </text>
            <text id="jazz_hands" sketch:type="MSTextLayer" font-family="Roboto" font-size="18" font-weight="bold" fill="#D1D1D1">
                <tspan x="44" y="116">jazz_hands</tspan>
            </text>
            <text id="ckeditor" sketch:type="MSTextLayer" font-family="Roboto" font-size="18" font-weight="bold" fill="#D1D1D1">
                <tspan x="53" y="201">ckeditor</tspan>
            </text>
            <text id="react" sketch:type="MSTextLayer" font-family="Roboto" font-size="18" font-weight="bold" fill="#D1D1D1">
                <tspan x="216" y="201">react</tspan>
            </text>
            <text id="html_email" sketch:type="MSTextLayer" font-family="Roboto" font-size="18" font-weight="bold" fill="#D1D1D1">
                <tspan x="197" y="116">html_email</tspan>
            </text>
            <text id="bootstrap" sketch:type="MSTextLayer" font-family="Roboto" font-size="18" font-weight="bold" fill="#D1D1D1">
                <tspan x="50" y="286">bootstrap</tspan>
            </text>
            <text id="angular_view" sketch:type="MSTextLayer" font-family="Roboto" font-size="18" font-weight="bold" fill="#D1D1D1">
                <tspan x="189" y="285">angular_view</tspan>
            </text>
            <text id="api" sketch:type="MSTextLayer" font-family="Roboto" font-size="18" font-weight="bold" fill="#D1D1D1">
                <tspan x="76" y="567">api</tspan>
            </text>
            <text id="devise" sketch:type="MSTextLayer" font-family="Roboto" font-size="18" font-weight="bold" fill="#D1D1D1">
                <tspan x="62" y="416">devise</tspan>
            </text>
            <text id="splash" sketch:type="MSTextLayer" font-family="Roboto" font-size="18" font-weight="bold" fill="#D1D1D1">
                <tspan x="215" y="417">splash</tspan>
            </text>
            <text id="simple_cms" sketch:type="MSTextLayer" font-family="Roboto" font-size="18" font-weight="bold" fill="#D1D1D1">
                <tspan x="194" y="489">simple_cms</tspan>
            </text>
            <text id="angular_install" sketch:type="MSTextLayer" font-family="Roboto" font-size="18" font-weight="bold" fill="#D1D1D1">
                <tspan x="183" y="568">angular_install</tspan>
            </text>
            <text id="invitable" sketch:type="MSTextLayer" font-family="Roboto" font-size="18" font-weight="bold" fill="#D1D1D1">
                <tspan x="54" y="814">invitable</tspan>
            </text>
            <text id="confirmable" sketch:type="MSTextLayer" font-family="Roboto" font-size="18" font-weight="bold" fill="#D1D1D1">
                <tspan x="40" y="662">confirmable</tspan>
            </text>
            <text id="omniauth" sketch:type="MSTextLayer" font-family="Roboto" font-size="18" font-weight="bold" fill="#D1D1D1">
                <tspan x="205" y="813">omniauth</tspan>
            </text>
            <text id="roles" sketch:type="MSTextLayer" font-family="Roboto" font-size="18" font-weight="bold" fill="#D1D1D1">
                <tspan x="223" y="661">roles</tspan>
            </text>
            <text id="admin" sketch:type="MSTextLayer" font-family="Roboto" font-size="18" font-weight="bold" fill="#D1D1D1">
                <tspan x="218" y="726">admin</tspan>
            </text>
            <text id="facebook" sketch:type="MSTextLayer" font-family="Roboto" font-size="18" font-weight="bold" fill="#D0D0D0">
                <tspan x="52" y="954">facebook</tspan>
            </text>
            <text id="googleauth" sketch:type="MSTextLayer" font-family="Roboto" font-size="18" font-weight="bold" fill="#D0D0D0">
                <tspan x="44" y="1033">googleauth</tspan>
            </text>
            <text id="instagram" sketch:type="MSTextLayer" font-family="Roboto" font-size="18" font-weight="bold" fill="#D0D0D0">
                <tspan x="203" y="956">instagram</tspan>
            </text>
            <path d="M261.109951,240.773293 L311.603228,240.773293 C322.649758,240.773293 331.603661,231.818753 331.603661,220.770449 L331.603661,86.6569599 C331.603661,75.609889 322.647295,66.6541156 311.600075,66.6541156 L179.003586,66.6541156 C170.166687,66.6541156 163,59.4912609 163,50.6639099 L163,50 L159,50 L159,50.6639099 C159,61.700879 167.958027,70.6541156 179.003586,70.6541156 L311.600075,70.6541156 C320.438216,70.6541156 327.603661,77.8190872 327.603661,86.6569599 L327.603661,220.770449 C327.603661,229.609678 320.440555,236.773293 311.603228,236.773293 L261.109951,236.773293 C250.122065,236.773293 241.109517,244.600283 241.109517,254.406106 L245.109517,254.406106 C245.109517,246.944653 252.215656,240.773293 261.109951,240.773293 Z" id="base_to_angular_view" fill="#979797" sketch:type="MSShapeGroup"></path>
            <path d="M261.109951,159.773293 L311.603228,159.773293 C322.649758,159.773293 331.603661,150.818753 331.603661,139.770449 L331.603661,86.6569599 C331.603661,75.609889 322.647295,66.6541156 311.600075,66.6541156 L179.003586,66.6541156 C170.166687,66.6541156 163,59.4912609 163,50.6639099 L163,50 L159,50 L159,50.6639099 C159,61.700879 167.958027,70.6541156 179.003586,70.6541156 L311.600075,70.6541156 C320.438216,70.6541156 327.603661,77.8190872 327.603661,86.6569599 L327.603661,139.770449 C327.603661,148.609678 320.440555,155.773293 311.603228,155.773293 L261.109951,155.773293 C250.122065,155.773293 241.109517,163.600283 241.109517,173.406106 L245.109517,173.406106 C245.109517,165.944653 252.215656,159.773293 261.109951,159.773293 Z" id="base_to_angular_view-copy" fill="#979797" sketch:type="MSShapeGroup"></path>
            <text id="twitter" sketch:type="MSTextLayer" font-family="Roboto" font-size="18" font-weight="bold" fill="#D0D0D0">
                <tspan x="217" y="1033">twitter</tspan>
            </text>
            <path d="M71.497878,237.773293 L19.9962659,237.773293 C11.1613437,237.773293 4,230.609781 4,221.770449 L4,86.6569599 C4,77.8163538 11.1586453,70.6541156 19.9983203,70.6541156 L143.605341,70.6541156 C154.648123,70.6541156 163.603661,61.700748 163.603661,50.6639099 L163.603661,50 L159.603661,50 L159.603661,50.6639099 C159.603661,59.4913919 152.439201,66.6541156 143.605341,66.6541156 L19.9983203,66.6541156 C8.94905691,66.6541156 2.88657986e-15,75.607664 2.22044605e-15,86.6569599 L0,221.770449 C-6.66133815e-16,232.818649 8.9519335,241.773293 19.9962659,241.773293 L71.497878,241.773293 C80.3915322,241.773293 87.4941439,247.943664 87.4941439,255.406106 L91.4941439,255.406106 C91.4941439,245.599635 82.4853711,237.773293 71.497878,237.773293 Z" id="base_to_bootstrap" fill="#979797" sketch:type="MSShapeGroup"></path>
            <path d="M71.497878,155.773293 L19.9962659,155.773293 C11.1613437,155.773293 4,148.609781 4,139.770449 L4,86.6569599 C4,77.8163538 11.1586453,70.6541156 19.9983203,70.6541156 L143.605341,70.6541156 C154.648123,70.6541156 163.603661,61.700748 163.603661,50.6639099 L163.603661,50 L159.603661,50 L159.603661,50.6639099 C159.603661,59.4913919 152.439201,66.6541156 143.605341,66.6541156 L19.9983203,66.6541156 C8.94905691,66.6541156 2.88657986e-15,75.607664 2.22044605e-15,86.6569599 L0,139.770449 C-6.66133815e-16,150.818649 8.9519335,159.773293 19.9962659,159.773293 L71.497878,159.773293 C80.3915322,159.773293 87.4941439,165.943664 87.4941439,173.406106 L91.4941439,173.406106 C91.4941439,163.599635 82.4853711,155.773293 71.497878,155.773293 Z" id="base_to_ckeditor" fill="#979797" sketch:type="MSShapeGroup"></path>
            <text id="github" sketch:type="MSTextLayer" font-family="Roboto" font-size="18" font-weight="bold" fill="#D0D0D0">
                <tspan x="139" y="1115">github</tspan>
            </text>
            <path d="M244,680.339844 L244,696.320312" id="roles_to_admin" stroke="#979797" stroke-width="4" sketch:type="MSShapeGroup"></path>
            <path d="M159.036813,51 C159.036813,59.7160444 151.876001,66.7962135 143.043689,66.7962135 L104.993124,66.7962135 C93.9522493,66.7962135 85,75.7496184 85,86.7894993 L85,89.0764817 L89,89.0764817 L89,86.7894993 C89,77.9586418 96.1615038,70.7962135 104.993124,70.7962135 L143.043689,70.7962135 C154.075063,70.7962135 163.036813,61.9353877 163.036813,51 L159.036813,51 L159.036813,51 Z" id="base_to_jazz_hands" fill="#979797" sketch:type="MSShapeGroup"></path>
            <path d="M243.165974,86.7544392 L243.165974,86.7414786 C243.165974,75.7694071 234.263525,66.8727121 223.288523,66.8727121 L179.877451,66.8727121 C171.106106,66.8727121 164,59.7702697 164,51 L160,51 C160,61.9798706 168.897429,70.8727121 179.877451,70.8727121 L223.288523,70.8727121 C232.054965,70.8727121 239.165974,77.9791252 239.165974,86.7414786 L239.165974,86.7544392 L243.165974,86.7544392 L243.165974,86.7544392 Z" id="base_to_html_email" fill="#979797" sketch:type="MSShapeGroup"></path>
            <path d="M92,387.209934 L92,303 L88,303 L88,387.209934 L92,387.209934 L92,387.209934 Z" id="bootstrap_to_devise" fill="#979797" sketch:type="MSShapeGroup"></path>
            <path d="M240.873718,386.027359 L240.873718,366.828956 C240.873718,355.781713 231.92129,346.82914 220.87088,346.82914 L109.002838,346.82914 C100.166289,346.82914 93,339.65982 93,330.821459 L93,304 L89,304 L89,330.821459 C89,341.86858 97.9567714,350.82914 109.002838,350.82914 L220.87088,350.82914 C229.712137,350.82914 236.873718,357.990838 236.873718,366.828956 L236.873718,386.027359 L240.873718,386.027359 L240.873718,386.027359 Z" id="bootstrap_to_splash" fill="#979797" sketch:type="MSShapeGroup"></path>
            <path d="M244.100391,627.363929 C244.100391,616.315174 235.147578,607.357356 224.104519,607.357356 L20.9958717,607.357356 C12.1638396,607.357356 5,600.187118 5,591.349102 L5,470.941867 C5,462.102508 12.1668918,454.933613 20.9994626,454.933613 L68.9043025,454.933613 C79.5670291,454.933613 88.9037651,446.336532 88.9037651,437 L84.9037651,437 C84.9037651,444.050298 77.4282408,450.933613 68.9043025,450.933613 L20.9994626,450.933613 C9.95750257,450.933613 1,459.893619 1,470.941867 L1,591.349102 C1,602.395458 9.9539008,611.357356 20.9958717,611.357356 L224.104519,611.357356 C232.937938,611.357356 240.100391,618.523813 240.100391,627.363929 L240.100391,631.222678 L244.100391,631.222678 L244.100391,627.363929 Z" id="devise_to_roles" fill="#979797" sketch:type="MSShapeGroup"></path>
            <path d="M244.100391,780.363929 C244.100391,769.315174 235.147578,760.357356 224.104519,760.357356 L20.9958717,760.357356 C12.1638396,760.357356 5,753.187118 5,744.349102 L5,470.941867 C5,462.102508 12.1668918,454.933613 20.9994626,454.933613 L68.9043025,454.933613 C79.5670291,454.933613 88.9037651,446.336532 88.9037651,437 L84.9037651,437 C84.9037651,444.050298 77.4282408,450.933613 68.9043025,450.933613 L20.9994626,450.933613 C9.95750257,450.933613 1,459.893619 1,470.941867 L1,744.349102 C1,755.395458 9.9539008,764.357356 20.9958717,764.357356 L224.104519,764.357356 C232.937938,764.357356 240.100391,771.523813 240.100391,780.363929 L240.100391,784.222678 L244.100391,784.222678 L244.100391,780.363929 Z" id="devise_to_omniauth" fill="#979797" sketch:type="MSShapeGroup"></path>
            <path d="M259.997884,523.262972 L313.806807,523.262972 C324.850908,523.262972 333.804691,514.308796 333.804691,503.265188 L333.804691,341.351483 C333.804691,330.305725 324.855676,321.353699 313.810087,321.353699 L260.612527,321.353699 C251.783228,321.353699 244.617924,314.18584 244.617924,305.360915 L244.617924,304 L240.617924,304 L240.617924,305.360915 C240.617924,316.39466 249.573769,325.353699 260.612527,325.353699 L313.810087,325.353699 C322.646236,325.353699 329.804691,332.514563 329.804691,341.351483 L329.804691,503.265188 C329.804691,512.099697 322.64173,519.262972 313.806807,519.262972 L259.997884,519.262972 C248.989145,519.262972 240,527.667784 240,538.097687 L244,538.097687 C244,529.939246 251.140433,523.262972 259.997884,523.262972 Z" id="angular_view_to_angular_install" fill="#979797" sketch:type="MSShapeGroup"></path>
            <path d="M87.5116917,626.912494 C87.5116917,615.870453 78.5542892,606.919419 67.5061108,606.919419 L21.005581,606.919419 C12.1648281,606.919419 5,599.755632 5,590.914356 L5,471.02773 C5,462.186863 12.1610034,455.022667 20.9996695,455.022667 L69.2060736,455.022667 C80.076565,455.022667 89.2057431,446.234383 89.2057431,436 L85.2057431,436 C85.2057431,443.990468 77.900768,451.022667 69.2060736,451.022667 L20.9996695,451.022667 C9.95146514,451.022667 1,459.978123 1,471.02773 L1,590.914356 C1,601.964902 9.95581919,610.919419 21.005581,610.919419 L67.5061108,610.919419 C76.3457868,610.919419 83.5116917,618.080229 83.5116917,626.912494 L83.5116917,630.617949 L87.5116917,630.617949 L87.5116917,626.912494 Z" id="devise_to_confirmable" fill="#979797" sketch:type="MSShapeGroup"></path>
            <path d="M87.5116917,780.912494 C87.5116917,769.870453 78.5542892,760.919419 67.5061108,760.919419 L21.005581,760.919419 C12.1648281,760.919419 5,753.755632 5,744.914356 L5,471.02773 C5,462.186863 12.1610034,455.022667 20.9996695,455.022667 L69.2060736,455.022667 C80.076565,455.022667 89.2057431,446.234383 89.2057431,436 L85.2057431,436 C85.2057431,443.990468 77.900768,451.022667 69.2060736,451.022667 L20.9996695,451.022667 C9.95146514,451.022667 1,459.978123 1,471.02773 L1,744.914356 C1,755.964902 9.95581919,764.919419 21.005581,764.919419 L67.5061108,764.919419 C76.3457868,764.919419 83.5116917,772.080229 83.5116917,780.912494 L83.5116917,784.617949 L87.5116917,784.617949 L87.5116917,780.912494 Z" id="devise_to_invitable" fill="#979797" sketch:type="MSShapeGroup"></path>
            <path d="M91.4447799,1002.85761 C91.4447799,992.871153 82.4453035,984.877142 71.4546196,984.877142 L20.9901603,984.877142 C12.160737,984.877142 5,977.710448 5,968.87467 L5,897.594458 C5,888.75811 12.1626419,881.591985 20.9901423,881.591985 L221.134763,881.591985 C232.173644,881.591985 241.124905,872.63806 241.124905,861.599496 L241.124905,832 L237.124905,832 L237.124905,861.599496 C237.124905,870.429188 229.964238,877.591985 221.134763,877.591985 L20.9901423,877.591985 C9.9530675,877.591985 1,886.549406 1,897.594458 L1,968.87467 C1,979.918843 9.95085307,988.877142 20.9901603,988.877142 L71.4546196,988.877142 C80.334769,988.877142 87.4447799,995.192788 87.4447799,1002.85761 L91.4447799,1002.85761 L91.4447799,1002.85761 Z" id="omniauth_to_googleauth" fill="#979797" sketch:type="MSShapeGroup"></path>
            <path d="M89,922.806292 L89,897.506027 C89,888.665427 96.161789,881.501419 105.001748,881.501419 L220.574508,881.501419 C231.620066,881.501419 240.576256,872.549122 240.576256,861.509309 L240.576256,832 L236.576256,832 L236.576256,861.509309 C236.576256,870.339593 229.411316,877.501419 220.574508,877.501419 L105.001748,877.501419 C93.9523724,877.501419 85,886.456566 85,897.506027 L85,922.806292 L89,922.806292 L89,922.806292 Z" id="omniauth_to_facebook" fill="#979797" sketch:type="MSShapeGroup"></path>
            <path d="M241,924.084342 L241,832 L237,832 L237,924.084342 L241,924.084342 L241,924.084342 Z" id="omniauth_to_instagram" fill="#979797" sketch:type="MSShapeGroup"></path>
            <path d="M168,1086.43751 L168,1082.26543 C168,1073.4208 175.160931,1066.25654 184.006438,1066.25654 L311.51335,1066.25654 C322.562292,1066.25654 331.519787,1057.30574 331.519787,1046.26351 L331.519787,897.877322 C331.519787,886.834085 322.564913,877.884296 311.514259,877.884296 L257.615183,877.884296 C248.776751,877.884296 241.609654,870.721206 241.609654,861.891689 L241.609654,833 L237.609654,833 L237.609654,861.891689 C237.609654,872.930845 246.568113,881.884296 257.615183,881.884296 L311.514259,881.884296 C320.356282,881.884296 327.519787,889.043733 327.519787,897.877322 L327.519787,1046.26351 C327.519787,1055.09593 320.353823,1062.25654 311.51335,1062.25654 L184.006438,1062.25654 C172.951375,1062.25654 164,1071.21208 164,1082.26543 L164,1086.43751 L168,1086.43751 L168,1086.43751 Z" id="omniauth_to_github" fill="#979797" sketch:type="MSShapeGroup"></path>
            <path d="M242.847492,1003.76167 L242.847492,1002.6666 C242.847492,993.828494 250.006999,986.669062 258.851043,986.669062 L311.80971,986.669062 C322.857513,986.669062 331.813261,977.720094 331.813261,966.67817 L331.813261,896.957268 C331.813261,885.913326 322.865184,876.966376 311.81366,876.966376 L257.999601,876.966376 C249.165147,876.966376 242,869.803233 242,860.975824 L242,832 L238,832 L238,860.975824 C238,872.012623 246.956259,880.966376 257.999601,880.966376 L311.81366,880.966376 C320.656158,880.966376 327.813261,888.122577 327.813261,896.957268 L327.813261,966.67817 C327.813261,975.510276 320.649052,982.669062 311.80971,982.669062 L258.851043,982.669062 C247.797869,982.669062 238.847492,991.619346 238.847492,1002.6666 L238.847492,1003.76167 L242.847492,1003.76167 L242.847492,1003.76167 Z" id="omniauth_to_twitter" fill="#979797" sketch:type="MSShapeGroup"></path>
            <path d="M90,436 L86,436 L86,538.015148 L90,538.015148 L90,436 Z" id="api_to_devise" fill="#979797" sketch:type="MSShapeGroup"></path>
            <path d="M242,433 L238,433 L238,458.015148 L242,458.015148 L242,433 Z" id="splash_to_simple_cms" fill="#979797" sketch:type="MSShapeGroup"></path>
        </g>
    </g>
</svg>